<svg width="799" height="594" viewBox="0 0 799 594" fill="none" xmlns="http://www.w3.org/2000/svg">
<g opacity="0.1">
<path d="M2.1514 184.703C-12.065 99.2657 45.6707 18.4806 131.108 4.26429L143.806 2.1514C229.243 -12.065 310.028 45.6708 324.244 131.108L349.985 285.805L182.59 313.659C97.1527 327.875 16.3678 270.14 2.1514 184.703Z" fill="#ED1B24"/>
<path d="M786.04 278.714C819.796 198.952 782.499 106.926 702.737 73.1707L690.882 68.1538C611.119 34.398 519.094 71.6943 485.338 151.457L424.218 295.881L580.496 362.018C660.259 395.774 752.284 358.477 786.04 278.714Z" fill="#ED1B24"/>
<path d="M611.794 508.977C594.07 571.072 529.363 607.042 467.268 589.317L458.039 586.683C395.944 568.959 359.975 504.252 377.699 442.157L409.792 329.724L531.454 364.451C593.549 382.176 629.519 446.882 611.794 508.977Z" fill="#ED1B24"/>
<path d="M244.093 568.551C179.579 571.365 124.999 521.348 122.184 456.834L121.766 447.246C118.952 382.732 168.969 328.152 233.483 325.338L350.295 320.242L355.809 446.643C358.624 511.156 308.607 565.737 244.093 568.551Z" fill="#ED1B24"/>
<path d="M435.539 245.713C435.539 269.159 416.532 288.166 393.086 288.166C369.64 288.166 350.633 269.159 350.633 245.713C350.633 222.267 369.64 203.26 393.086 203.26C416.532 203.26 435.539 222.267 435.539 245.713Z" fill="#231F1E"/>
</g>
</svg>
