<svg width="380" height="380" viewBox="0 0 380 380" fill="none" xmlns="http://www.w3.org/2000/svg">
<path d="M1.02386 136.933C-5.74176 96.2729 21.7349 57.8271 62.3946 51.0615L68.4375 50.056C109.097 43.2903 147.543 70.767 154.309 111.427L166.559 185.048L86.8951 198.303C46.2354 205.069 7.78948 177.592 1.02386 136.933Z" fill="#ED1B24"/>
<path d="M374.079 181.673C390.144 143.714 372.394 99.9187 334.435 83.8543L328.793 81.4667C290.834 65.4023 247.039 83.1516 230.974 121.111L201.887 189.843L276.26 221.318C314.22 237.382 358.015 219.633 374.079 181.673Z" fill="#ED1B24"/>
<path d="M291.155 291.256C282.72 320.807 251.926 337.925 222.375 329.49L217.983 328.237C188.431 319.802 171.313 289.008 179.748 259.456L195.022 205.949L252.921 222.476C282.472 230.911 299.59 261.705 291.155 291.256Z" fill="#ED1B24"/>
<path d="M116.165 319.607C85.4622 320.947 59.4873 297.143 58.1479 266.441L57.9489 261.878C56.6095 231.176 80.4129 205.201 111.115 203.861L166.707 201.436L169.331 261.591C170.67 292.293 146.867 318.268 116.165 319.607Z" fill="#ED1B24"/>
<path d="M207.274 165.968C207.274 177.126 198.229 186.171 187.071 186.171C175.913 186.171 166.867 177.126 166.867 165.968C166.867 154.81 175.913 145.764 187.071 145.764C198.229 145.764 207.274 154.81 207.274 165.968Z" fill="#231F1E"/>
</svg>
