<svg width="595" height="107" viewBox="0 0 595 107" fill="none" xmlns="http://www.w3.org/2000/svg">
<rect width="595" height="107" fill="white"/>
<path d="M271.526 73.9574H269.099L273.518 61.4041H276.326L280.751 73.9574H278.324L274.971 63.9785H274.873L271.526 73.9574ZM271.606 69.0354H278.226V70.862H271.606V69.0354ZM289.596 67.031L287.573 67.2517C287.516 67.0474 287.416 66.8553 287.273 66.6755C287.134 66.4957 286.946 66.3507 286.709 66.2403C286.472 66.13 286.182 66.0748 285.839 66.0748C285.377 66.0748 284.989 66.1749 284.674 66.3752C284.363 66.5754 284.21 66.8349 284.214 67.1536C284.21 67.4274 284.31 67.6501 284.515 67.8217C284.723 67.9934 285.066 68.1343 285.544 68.2447L287.15 68.5879C288.041 68.78 288.703 69.0844 289.136 69.5012C289.574 69.918 289.794 70.4636 289.798 71.1378C289.794 71.7303 289.62 72.2534 289.277 72.707C288.938 73.1565 288.466 73.5079 287.861 73.7613C287.257 74.0146 286.562 74.1413 285.777 74.1413C284.625 74.1413 283.697 73.9002 282.994 73.418C282.292 72.9317 281.873 72.2554 281.738 71.3891L283.902 71.1807C284 71.6057 284.208 71.9265 284.527 72.1431C284.846 72.3596 285.26 72.4679 285.771 72.4679C286.298 72.4679 286.721 72.3596 287.04 72.1431C287.363 71.9265 287.524 71.6588 287.524 71.3401C287.524 71.0704 287.42 70.8477 287.212 70.672C287.007 70.4963 286.689 70.3614 286.255 70.2674L284.649 69.9303C283.746 69.7423 283.078 69.4256 282.645 68.9802C282.212 68.5307 281.997 67.9627 282.001 67.2762C281.997 66.696 282.155 66.1933 282.473 65.7684C282.796 65.3393 283.244 65.0083 283.816 64.7754C284.392 64.5384 285.056 64.4199 285.808 64.4199C286.911 64.4199 287.78 64.6548 288.413 65.1248C289.05 65.5947 289.445 66.2301 289.596 67.031ZM291.628 73.9574V64.5424H293.779V66.1116H293.877C294.049 65.5681 294.343 65.1493 294.76 64.8551C295.181 64.5568 295.661 64.4076 296.201 64.4076C296.323 64.4076 296.46 64.4137 296.611 64.426C296.766 64.4342 296.895 64.4485 296.997 64.4689V66.51C296.903 66.4773 296.754 66.4487 296.55 66.4242C296.35 66.3956 296.156 66.3813 295.968 66.3813C295.563 66.3813 295.199 66.4692 294.877 66.6449C294.558 66.8165 294.307 67.0556 294.123 67.362C293.939 67.6685 293.847 68.022 293.847 68.4224V73.9574H291.628ZM301.012 74.1474C300.416 74.1474 299.878 74.0412 299.4 73.8287C298.926 73.6121 298.55 73.2934 298.272 72.8725C297.999 72.4516 297.862 71.9326 297.862 71.3156C297.862 70.7843 297.96 70.3451 298.156 69.9977C298.352 69.6504 298.62 69.3725 298.959 69.1641C299.298 68.9557 299.68 68.7984 300.105 68.6921C300.534 68.5818 300.977 68.5021 301.435 68.4531C301.987 68.3959 302.434 68.3448 302.778 68.2998C303.121 68.2508 303.37 68.1773 303.525 68.0792C303.685 67.977 303.764 67.8197 303.764 67.6072V67.5704C303.764 67.1087 303.627 66.7511 303.354 66.4978C303.08 66.2444 302.686 66.1177 302.171 66.1177C301.627 66.1177 301.196 66.2362 300.877 66.4732C300.563 66.7103 300.35 66.9902 300.24 67.313L298.168 67.0188C298.332 66.4467 298.601 65.9686 298.977 65.5845C299.353 65.1963 299.813 64.9061 300.356 64.7141C300.9 64.5179 301.501 64.4199 302.158 64.4199C302.612 64.4199 303.064 64.473 303.513 64.5792C303.963 64.6855 304.373 64.8612 304.745 65.1064C305.117 65.3475 305.415 65.6764 305.64 66.0932C305.869 66.51 305.983 67.031 305.983 67.6562V73.9574H303.85V72.6641H303.777C303.642 72.9256 303.452 73.1708 303.207 73.3996C302.965 73.6244 302.661 73.8062 302.293 73.9451C301.93 74.08 301.503 74.1474 301.012 74.1474ZM301.588 72.517C302.034 72.517 302.42 72.4291 302.747 72.2534C303.074 72.0736 303.325 71.8366 303.501 71.5424C303.681 71.2481 303.771 70.9274 303.771 70.58V69.4706C303.701 69.5278 303.583 69.5809 303.415 69.63C303.252 69.679 303.068 69.7219 302.863 69.7587C302.659 69.7955 302.457 69.8281 302.257 69.8567C302.056 69.8854 301.883 69.9099 301.736 69.9303C301.405 69.9753 301.108 70.0488 300.847 70.151C300.585 70.2531 300.379 70.3961 300.228 70.58C300.076 70.7598 300.001 70.9928 300.001 71.2788C300.001 71.6874 300.15 71.9959 300.448 72.2044C300.747 72.4128 301.127 72.517 301.588 72.517ZM309.256 77.488C308.954 77.488 308.674 77.4635 308.417 77.4144C308.163 77.3695 307.961 77.3164 307.81 77.2551L308.325 75.5266C308.648 75.6205 308.936 75.6655 309.189 75.6614C309.442 75.6573 309.665 75.5776 309.857 75.4224C310.053 75.2712 310.219 75.0178 310.354 74.6623L310.544 74.1535L307.129 64.5424H309.483L311.653 71.6527H311.751L313.927 64.5424H316.287L312.517 75.0975C312.342 75.596 312.109 76.023 311.819 76.3786C311.528 76.7382 311.173 77.0119 310.752 77.1999C310.335 77.392 309.837 77.488 309.256 77.488ZM320.262 74.1474C319.665 74.1474 319.128 74.0412 318.65 73.8287C318.176 73.6121 317.8 73.2934 317.522 72.8725C317.248 72.4516 317.111 71.9326 317.111 71.3156C317.111 70.7843 317.209 70.3451 317.406 69.9977C317.602 69.6504 317.869 69.3725 318.209 69.1641C318.548 68.9557 318.93 68.7984 319.355 68.6921C319.784 68.5818 320.227 68.5021 320.685 68.4531C321.237 68.3959 321.684 68.3448 322.027 68.2998C322.371 68.2508 322.62 68.1773 322.775 68.0792C322.934 67.977 323.014 67.8197 323.014 67.6072V67.5704C323.014 67.1087 322.877 66.7511 322.603 66.4978C322.33 66.2444 321.935 66.1177 321.42 66.1177C320.877 66.1177 320.446 66.2362 320.127 66.4732C319.812 66.7103 319.6 66.9902 319.49 67.313L317.418 67.0188C317.581 66.4467 317.851 65.9686 318.227 65.5845C318.603 65.1963 319.063 64.9061 319.606 64.7141C320.15 64.5179 320.75 64.4199 321.408 64.4199C321.862 64.4199 322.313 64.473 322.763 64.5792C323.212 64.6855 323.623 64.8612 323.995 65.1064C324.367 65.3475 324.665 65.6764 324.89 66.0932C325.119 66.51 325.233 67.031 325.233 67.6562V73.9574H323.1V72.6641H323.026C322.892 72.9256 322.702 73.1708 322.456 73.3996C322.215 73.6244 321.911 73.8062 321.543 73.9451C321.179 74.08 320.752 74.1474 320.262 74.1474ZM320.838 72.517C321.284 72.517 321.67 72.4291 321.997 72.2534C322.324 72.0736 322.575 71.8366 322.751 71.5424C322.93 71.2481 323.02 70.9274 323.02 70.58V69.4706C322.951 69.5278 322.832 69.5809 322.665 69.63C322.501 69.679 322.317 69.7219 322.113 69.7587C321.909 69.7955 321.707 69.8281 321.506 69.8567C321.306 69.8854 321.132 69.9099 320.985 69.9303C320.654 69.9753 320.358 70.0488 320.096 70.151C319.835 70.2531 319.629 70.3961 319.477 70.58C319.326 70.7598 319.251 70.9928 319.251 71.2788C319.251 71.6874 319.4 71.9959 319.698 72.2044C319.996 72.4128 320.376 72.517 320.838 72.517ZM261.019 80.9773H260.142C260.09 80.725 260 80.5033 259.87 80.3123C259.742 80.1213 259.587 79.961 259.403 79.8313C259.221 79.6993 259.02 79.6002 258.798 79.5342C258.576 79.4682 258.345 79.4352 258.105 79.4352C257.666 79.4352 257.269 79.546 256.913 79.7676C256.559 79.9893 256.277 80.3159 256.068 80.7474C255.86 81.1789 255.756 81.7083 255.756 82.3355C255.756 82.9627 255.86 83.4921 256.068 83.9236C256.277 84.3551 256.559 84.6817 256.913 84.9034C257.269 85.125 257.666 85.2358 258.105 85.2358C258.345 85.2358 258.576 85.2028 258.798 85.1368C259.02 85.0708 259.221 84.9729 259.403 84.8432C259.587 84.7112 259.742 84.5497 259.87 84.3587C260 84.1653 260.09 83.9437 260.142 83.6937H261.019C260.953 84.0639 260.833 84.3952 260.659 84.6876C260.484 84.98 260.267 85.2288 260.008 85.4339C259.748 85.6367 259.457 85.7912 259.134 85.8973C258.813 86.0034 258.47 86.0564 258.105 86.0564C257.487 86.0564 256.938 85.9055 256.457 85.6037C255.976 85.3019 255.597 84.8727 255.321 84.3162C255.045 83.7597 254.907 83.0995 254.907 82.3355C254.907 81.5715 255.045 80.9113 255.321 80.3548C255.597 79.7983 255.976 79.3691 256.457 79.0673C256.938 78.7655 257.487 78.6146 258.105 78.6146C258.47 78.6146 258.813 78.6676 259.134 78.7737C259.457 78.8799 259.748 79.0355 260.008 79.2406C260.267 79.4434 260.484 79.691 260.659 79.9834C260.833 80.2734 260.953 80.6047 261.019 80.9773ZM263.158 82.6892V85.9574H262.324V78.7136H263.158V81.3734H263.229C263.356 81.0928 263.547 80.87 263.802 80.7049C264.059 80.5375 264.401 80.4538 264.828 80.4538C265.198 80.4538 265.522 80.5281 265.8 80.6767C266.079 80.8228 266.294 81.048 266.448 81.3522C266.603 81.654 266.681 82.0384 266.681 82.5053V85.9574H265.846V82.5619C265.846 82.1304 265.734 81.7967 265.51 81.5609C265.289 81.3227 264.981 81.2037 264.587 81.2037C264.314 81.2037 264.069 81.2614 263.852 81.377C263.637 81.4925 263.467 81.6611 263.342 81.8828C263.22 82.1044 263.158 82.3732 263.158 82.6892ZM269.807 86.0847C269.463 86.0847 269.15 86.0199 268.87 85.8902C268.589 85.7581 268.366 85.5683 268.201 85.3207C268.036 85.0708 267.954 84.769 267.954 84.4153C267.954 84.104 268.015 83.8517 268.138 83.6583C268.26 83.4626 268.424 83.3094 268.629 83.1985C268.834 83.0877 269.061 83.0052 269.308 82.9509C269.558 82.8944 269.809 82.8496 270.062 82.8165C270.392 82.7741 270.659 82.7423 270.865 82.721C271.072 82.6975 271.223 82.6586 271.317 82.6043C271.414 82.5501 271.462 82.4558 271.462 82.3214V82.2931C271.462 81.9441 271.367 81.6729 271.176 81.4796C270.987 81.2862 270.701 81.1895 270.316 81.1895C269.918 81.1895 269.605 81.2768 269.379 81.4513C269.153 81.6257 268.994 81.812 268.902 82.0101L268.109 81.7271C268.251 81.397 268.439 81.14 268.675 80.9561C268.913 80.7698 269.173 80.6401 269.453 80.567C269.736 80.4915 270.015 80.4538 270.288 80.4538C270.463 80.4538 270.663 80.475 270.889 80.5175C271.118 80.5576 271.339 80.6413 271.551 80.7686C271.765 80.8959 271.943 81.0881 272.085 81.3451C272.226 81.6022 272.297 81.9464 272.297 82.3779V85.9574H271.462V85.2217H271.42C271.363 85.3396 271.269 85.4658 271.137 85.6002C271.005 85.7346 270.829 85.8489 270.61 85.9432C270.391 86.0376 270.123 86.0847 269.807 86.0847ZM269.934 85.3349C270.264 85.3349 270.543 85.27 270.769 85.1403C270.998 85.0107 271.17 84.8432 271.285 84.6381C271.403 84.4329 271.462 84.2172 271.462 83.9908V83.2268C271.427 83.2693 271.349 83.3082 271.229 83.3436C271.111 83.3766 270.974 83.406 270.819 83.432C270.665 83.4556 270.516 83.4768 270.369 83.4956C270.226 83.5121 270.109 83.5263 270.019 83.5381C269.802 83.5664 269.6 83.6124 269.411 83.676C269.225 83.7373 269.074 83.8305 268.958 83.9555C268.845 84.0781 268.788 84.2455 268.788 84.4577C268.788 84.7477 268.896 84.967 269.11 85.1156C269.327 85.2618 269.602 85.3349 269.934 85.3349ZM273.821 85.9574V80.5246H274.627V81.3451H274.684C274.783 81.0763 274.962 80.8582 275.221 80.6908C275.481 80.5234 275.773 80.4397 276.098 80.4397C276.16 80.4397 276.236 80.4409 276.328 80.4432C276.42 80.4456 276.49 80.4491 276.537 80.4538V81.3027C276.509 81.2956 276.444 81.285 276.343 81.2709C276.243 81.2544 276.139 81.2461 276.028 81.2461C275.764 81.2461 275.528 81.3015 275.32 81.4123C275.115 81.5208 274.952 81.6717 274.832 81.8651C274.714 82.0561 274.655 82.2742 274.655 82.5194V85.9574H273.821ZM277.527 85.9574V80.5246H278.361V85.9574H277.527ZM277.951 79.6191C277.788 79.6191 277.648 79.5637 277.53 79.4528C277.415 79.342 277.357 79.2088 277.357 79.0532C277.357 78.8975 277.415 78.7643 277.53 78.6535C277.648 78.5427 277.788 78.4872 277.951 78.4872C278.114 78.4872 278.253 78.5427 278.368 78.6535C278.486 78.7643 278.545 78.8975 278.545 79.0532C278.545 79.2088 278.486 79.342 278.368 79.4528C278.253 79.5637 278.114 79.6191 277.951 79.6191ZM282.253 80.5246V81.232H279.437V80.5246H282.253ZM280.258 79.2229H281.093V84.4011C281.093 84.6369 281.127 84.8138 281.195 84.9317C281.266 85.0472 281.356 85.125 281.464 85.1651C281.575 85.2028 281.692 85.2217 281.814 85.2217C281.906 85.2217 281.982 85.217 282.041 85.2076C282.1 85.1958 282.147 85.1863 282.182 85.1793L282.352 85.9291C282.295 85.9503 282.216 85.9715 282.115 85.9928C282.014 86.0163 281.885 86.0281 281.729 86.0281C281.494 86.0281 281.263 85.9774 281.036 85.876C280.812 85.7747 280.626 85.6202 280.477 85.4127C280.331 85.2052 280.258 84.9435 280.258 84.6275V79.2229ZM285.107 86.0847C284.763 86.0847 284.451 86.0199 284.17 85.8902C283.889 85.7581 283.666 85.5683 283.501 85.3207C283.336 85.0708 283.254 84.769 283.254 84.4153C283.254 84.104 283.315 83.8517 283.438 83.6583C283.56 83.4626 283.724 83.3094 283.929 83.1985C284.135 83.0877 284.361 83.0052 284.609 82.9509C284.858 82.8944 285.11 82.8496 285.362 82.8165C285.692 82.7741 285.96 82.7423 286.165 82.721C286.372 82.6975 286.523 82.6586 286.618 82.6043C286.714 82.5501 286.763 82.4558 286.763 82.3214V82.2931C286.763 81.9441 286.667 81.6729 286.476 81.4796C286.287 81.2862 286.001 81.1895 285.617 81.1895C285.218 81.1895 284.906 81.2768 284.679 81.4513C284.453 81.6257 284.294 81.812 284.202 82.0101L283.409 81.7271C283.551 81.397 283.74 81.14 283.975 80.9561C284.214 80.7698 284.473 80.6401 284.754 80.567C285.036 80.4915 285.315 80.4538 285.588 80.4538C285.763 80.4538 285.963 80.475 286.19 80.5175C286.418 80.5576 286.639 80.6413 286.851 80.7686C287.066 80.8959 287.244 81.0881 287.385 81.3451C287.527 81.6022 287.597 81.9464 287.597 82.3779V85.9574H286.763V85.2217H286.72C286.664 85.3396 286.569 85.4658 286.437 85.6002C286.305 85.7346 286.129 85.8489 285.91 85.9432C285.691 86.0376 285.423 86.0847 285.107 86.0847ZM285.235 85.3349C285.565 85.3349 285.843 85.27 286.069 85.1403C286.298 85.0107 286.47 84.8432 286.586 84.6381C286.704 84.4329 286.763 84.2172 286.763 83.9908V83.2268C286.727 83.2693 286.649 83.3082 286.529 83.3436C286.411 83.3766 286.274 83.406 286.119 83.432C285.966 83.4556 285.816 83.4768 285.67 83.4956C285.526 83.5121 285.409 83.5263 285.319 83.5381C285.103 83.5664 284.9 83.6124 284.711 83.676C284.525 83.7373 284.374 83.8305 284.258 83.9555C284.145 84.0781 284.089 84.2455 284.089 84.4577C284.089 84.7477 284.196 84.967 284.41 85.1156C284.627 85.2618 284.902 85.3349 285.235 85.3349ZM289.234 85.9574V78.7136H290.069V81.3876H290.139C290.201 81.2933 290.286 81.173 290.394 81.0268C290.505 80.8783 290.663 80.7462 290.868 80.6307C291.076 80.5128 291.356 80.4538 291.71 80.4538C292.167 80.4538 292.571 80.5682 292.92 80.7969C293.269 81.0256 293.541 81.3499 293.737 81.7696C293.932 82.1893 294.03 82.6845 294.03 83.2551C294.03 83.8305 293.932 84.3292 293.737 84.7513C293.541 85.171 293.27 85.4964 292.923 85.7275C292.576 85.9562 292.177 86.0706 291.724 86.0706C291.375 86.0706 291.096 86.0128 290.886 85.8973C290.676 85.7794 290.514 85.6461 290.401 85.4976C290.288 85.3467 290.201 85.2217 290.139 85.1227H290.04V85.9574H289.234ZM290.055 83.241C290.055 83.6513 290.115 84.0132 290.235 84.3268C290.355 84.6381 290.531 84.8821 290.762 85.059C290.993 85.2335 291.276 85.3207 291.611 85.3207C291.96 85.3207 292.251 85.2288 292.485 85.0449C292.72 84.8586 292.897 84.6086 293.015 84.295C293.135 83.979 293.195 83.6277 293.195 83.241C293.195 82.859 293.137 82.5147 293.019 82.2082C292.903 81.8993 292.727 81.6552 292.492 81.476C292.258 81.2944 291.965 81.2037 291.611 81.2037C291.271 81.2037 290.986 81.2897 290.755 81.4619C290.524 81.6316 290.349 81.8698 290.231 82.1763C290.114 82.4805 290.055 82.8354 290.055 83.241ZM296.142 78.7136V85.9574H295.307V78.7136H296.142ZM299.948 86.0706C299.425 86.0706 298.973 85.955 298.594 85.724C298.217 85.4905 297.925 85.1651 297.72 84.7477C297.517 84.328 297.416 83.8399 297.416 83.2834C297.416 82.7269 297.517 82.2365 297.72 81.812C297.925 81.3852 298.211 81.0528 298.576 80.8146C298.944 80.5741 299.373 80.4538 299.864 80.4538C300.147 80.4538 300.426 80.501 300.702 80.5953C300.978 80.6896 301.229 80.8429 301.455 81.0551C301.682 81.265 301.862 81.5432 301.996 81.8898C302.131 82.2365 302.198 82.6633 302.198 83.1702V83.5239H298.01V82.8024H301.349C301.349 82.4958 301.288 82.2223 301.165 81.9818C301.045 81.7413 300.873 81.5515 300.649 81.4123C300.427 81.2732 300.165 81.2037 299.864 81.2037C299.531 81.2037 299.243 81.2862 299.001 81.4513C298.76 81.614 298.575 81.8262 298.445 82.0879C298.316 82.3497 298.251 82.6303 298.251 82.9297V83.4108C298.251 83.821 298.321 84.1689 298.463 84.4542C298.607 84.7371 298.806 84.9529 299.061 85.1014C299.315 85.2476 299.611 85.3207 299.948 85.3207C300.168 85.3207 300.366 85.2901 300.543 85.2288C300.722 85.1651 300.876 85.0708 301.006 84.9458C301.136 84.8185 301.236 84.6605 301.307 84.4719L302.113 84.6982C302.028 84.9718 301.886 85.2123 301.685 85.4198C301.485 85.6249 301.237 85.7853 300.942 85.9008C300.648 86.014 300.316 86.0706 299.948 86.0706ZM310.344 80.5246C310.301 80.1661 310.129 79.8879 309.827 79.6898C309.526 79.4918 309.155 79.3927 308.717 79.3927C308.396 79.3927 308.115 79.4446 307.875 79.5483C307.637 79.6521 307.45 79.7948 307.316 79.9763C307.184 80.1579 307.118 80.3642 307.118 80.5953C307.118 80.7887 307.164 80.9549 307.256 81.094C307.35 81.2308 307.471 81.3451 307.617 81.4371C307.763 81.5267 307.916 81.601 308.077 81.6599C308.237 81.7165 308.384 81.7625 308.519 81.7979L309.254 81.996C309.443 82.0455 309.653 82.1139 309.884 82.2011C310.117 82.2883 310.34 82.4074 310.552 82.5583C310.767 82.7069 310.944 82.8979 311.083 83.1313C311.222 83.3648 311.292 83.6513 311.292 83.9908C311.292 84.3823 311.189 84.736 310.984 85.0519C310.781 85.3679 310.484 85.619 310.093 85.8053C309.704 85.9916 309.231 86.0847 308.674 86.0847C308.156 86.0847 307.706 86.001 307.327 85.8336C306.949 85.6662 306.652 85.4327 306.435 85.1333C306.221 84.8338 306.099 84.486 306.071 84.0899H306.977C307 84.3634 307.092 84.5898 307.252 84.769C307.415 84.9458 307.62 85.0779 307.868 85.1651C308.118 85.25 308.387 85.2924 308.674 85.2924C309.009 85.2924 309.31 85.2382 309.576 85.1297C309.843 85.0189 310.054 84.8656 310.209 84.6699C310.365 84.4719 310.443 84.2408 310.443 83.9767C310.443 83.7362 310.376 83.5404 310.241 83.3895C310.107 83.2386 309.93 83.116 309.711 83.0217C309.491 82.9274 309.254 82.8448 309 82.7741L308.108 82.5194C307.542 82.3567 307.094 82.1245 306.764 81.8226C306.434 81.5208 306.269 81.1259 306.269 80.6377C306.269 80.2322 306.379 79.8785 306.598 79.5766C306.82 79.2725 307.117 79.0367 307.489 78.8692C307.864 78.6995 308.283 78.6146 308.745 78.6146C309.212 78.6146 309.627 78.6983 309.99 78.8657C310.353 79.0308 310.641 79.2571 310.853 79.5448C311.068 79.8325 311.181 80.1591 311.193 80.5246H310.344ZM314.828 86.0706C314.337 86.0706 313.907 85.9539 313.537 85.7204C313.169 85.487 312.881 85.1604 312.674 84.7407C312.469 84.3209 312.366 83.8305 312.366 83.2693C312.366 82.7034 312.469 82.2094 312.674 81.7873C312.881 81.3652 313.169 81.0374 313.537 80.804C313.907 80.5705 314.337 80.4538 314.828 80.4538C315.318 80.4538 315.747 80.5705 316.115 80.804C316.485 81.0374 316.773 81.3652 316.978 81.7873C317.186 82.2094 317.29 82.7034 317.29 83.2693C317.29 83.8305 317.186 84.3209 316.978 84.7407C316.773 85.1604 316.485 85.487 316.115 85.7204C315.747 85.9539 315.318 86.0706 314.828 86.0706ZM314.828 85.3207C315.2 85.3207 315.507 85.2252 315.747 85.0342C315.988 84.8432 316.166 84.5921 316.281 84.2809C316.397 83.9696 316.455 83.6324 316.455 83.2693C316.455 82.9061 316.397 82.5678 316.281 82.2542C316.166 81.9405 315.988 81.6871 315.747 81.4937C315.507 81.3003 315.2 81.2037 314.828 81.2037C314.455 81.2037 314.149 81.3003 313.908 81.4937C313.668 81.6871 313.49 81.9405 313.374 82.2542C313.259 82.5678 313.201 82.9061 313.201 83.2693C313.201 83.6324 313.259 83.9696 313.374 84.2809C313.49 84.5921 313.668 84.8432 313.908 85.0342C314.149 85.2252 314.455 85.3207 314.828 85.3207ZM320.771 86.0706C320.262 86.0706 319.823 85.9503 319.455 85.7098C319.087 85.4693 318.804 85.138 318.606 84.7159C318.408 84.2938 318.309 83.8116 318.309 83.2693C318.309 82.7175 318.41 82.2306 318.613 81.8085C318.818 81.3841 319.104 81.0528 319.469 80.8146C319.837 80.5741 320.266 80.4538 320.757 80.4538C321.139 80.4538 321.483 80.5246 321.789 80.666C322.096 80.8075 322.347 81.0056 322.543 81.2603C322.739 81.5149 322.86 81.812 322.907 82.1516H322.072C322.009 81.904 321.867 81.6847 321.648 81.4937C321.431 81.3003 321.139 81.2037 320.771 81.2037C320.445 81.2037 320.16 81.2886 319.915 81.4583C319.672 81.6257 319.482 81.8627 319.345 82.1693C319.211 82.4734 319.144 82.8307 319.144 83.241C319.144 83.6607 319.21 84.0262 319.342 84.3374C319.476 84.6487 319.665 84.8904 319.908 85.0625C320.153 85.2347 320.441 85.3207 320.771 85.3207C320.988 85.3207 321.185 85.283 321.362 85.2076C321.538 85.1321 321.688 85.0236 321.811 84.8821C321.933 84.7407 322.021 84.5709 322.072 84.3728H322.907C322.86 84.6935 322.743 84.9824 322.557 85.2394C322.373 85.494 322.129 85.6968 321.825 85.8478C321.523 85.9963 321.172 86.0706 320.771 86.0706ZM324.127 85.9574V80.5246H324.962V85.9574H324.127ZM324.552 79.6191C324.389 79.6191 324.249 79.5637 324.131 79.4528C324.015 79.342 323.958 79.2088 323.958 79.0532C323.958 78.8975 324.015 78.7643 324.131 78.6535C324.249 78.5427 324.389 78.4872 324.552 78.4872C324.715 78.4872 324.854 78.5427 324.969 78.6535C325.087 78.7643 325.146 78.8975 325.146 79.0532C325.146 79.2088 325.087 79.342 324.969 79.4528C324.854 79.5637 324.715 79.6191 324.552 79.6191ZM328.769 86.0706C328.245 86.0706 327.794 85.955 327.414 85.724C327.037 85.4905 326.746 85.1651 326.541 84.7477C326.338 84.328 326.236 83.8399 326.236 83.2834C326.236 82.7269 326.338 82.2365 326.541 81.812C326.746 81.3852 327.031 81.0528 327.397 80.8146C327.764 80.5741 328.194 80.4538 328.684 80.4538C328.967 80.4538 329.246 80.501 329.522 80.5953C329.798 80.6896 330.049 80.8429 330.276 81.0551C330.502 81.265 330.682 81.5432 330.817 81.8898C330.951 82.2365 331.018 82.6633 331.018 83.1702V83.5239H326.831V82.8024H330.17C330.17 82.4958 330.108 82.2223 329.986 81.9818C329.865 81.7413 329.693 81.5515 329.469 81.4123C329.248 81.2732 328.986 81.2037 328.684 81.2037C328.352 81.2037 328.064 81.2862 327.821 81.4513C327.58 81.614 327.395 81.8262 327.266 82.0879C327.136 82.3497 327.071 82.6303 327.071 82.9297V83.4108C327.071 83.821 327.142 84.1689 327.283 84.4542C327.427 84.7371 327.626 84.9529 327.881 85.1014C328.136 85.2476 328.432 85.3207 328.769 85.3207C328.988 85.3207 329.186 85.2901 329.363 85.2288C329.542 85.1651 329.697 85.0708 329.826 84.9458C329.956 84.8185 330.056 84.6605 330.127 84.4719L330.934 84.6982C330.849 84.9718 330.706 85.2123 330.506 85.4198C330.305 85.6249 330.058 85.7853 329.763 85.9008C329.468 86.014 329.137 86.0706 328.769 86.0706ZM334.651 80.5246V81.232H331.835V80.5246H334.651ZM332.656 79.2229H333.491V84.4011C333.491 84.6369 333.525 84.8138 333.593 84.9317C333.664 85.0472 333.754 85.125 333.862 85.1651C333.973 85.2028 334.09 85.2217 334.212 85.2217C334.304 85.2217 334.38 85.217 334.439 85.2076C334.498 85.1958 334.545 85.1863 334.58 85.1793L334.75 85.9291C334.693 85.9503 334.614 85.9715 334.513 85.9928C334.412 86.0163 334.283 86.0281 334.127 86.0281C333.892 86.0281 333.661 85.9774 333.434 85.876C333.21 85.7747 333.024 85.6202 332.875 85.4127C332.729 85.2052 332.656 84.9435 332.656 84.6275V79.2229ZM336.444 87.9947C336.303 87.9947 336.177 87.9829 336.066 87.9593C335.955 87.9381 335.878 87.9169 335.836 87.8957L336.048 87.16C336.251 87.2119 336.43 87.2307 336.586 87.2166C336.741 87.2024 336.879 87.1329 336.999 87.0079C337.122 86.8853 337.234 86.686 337.336 86.4101L337.491 85.9857L335.482 80.5246H336.388L337.887 84.8539H337.944L339.444 80.5246H340.349L338.043 86.7497C337.939 87.0303 337.811 87.2626 337.657 87.4465C337.504 87.6328 337.326 87.7707 337.123 87.8603C336.923 87.9499 336.696 87.9947 336.444 87.9947Z" fill="#170E52"/>
<path d="M273.033 30.2398C272.168 25.0407 275.681 20.1246 280.88 19.2595L281.653 19.1309C286.852 18.2658 291.768 21.7792 292.633 26.9784L294.2 36.3923L284.013 38.0873C278.814 38.9524 273.898 35.439 273.033 30.2398Z" fill="#ED1B24"/>
<path d="M320.735 35.9608C322.789 31.1069 320.52 25.5069 315.666 23.4527L314.945 23.1474C310.091 21.0932 304.491 23.3629 302.436 28.2167L298.717 37.0054L308.227 41.0301C313.081 43.0843 318.681 40.8146 320.735 35.9608Z" fill="#ED1B24"/>
<path d="M310.132 49.9731C309.053 53.7518 305.116 55.9407 301.337 54.8621L300.775 54.7018C296.997 53.6232 294.808 49.6856 295.886 45.9069L297.839 39.0649L305.243 41.1782C309.021 42.2568 311.21 46.1944 310.132 49.9731Z" fill="#ED1B24"/>
<path d="M287.756 53.5984C283.83 53.7696 280.508 50.7259 280.337 46.8L280.312 46.2165C280.14 42.2906 283.184 38.9692 287.11 38.798L294.219 38.4879L294.554 46.1798C294.725 50.1057 291.682 53.4271 287.756 53.5984Z" fill="#ED1B24"/>
<path d="M299.406 33.9525C299.406 35.3793 298.249 36.536 296.823 36.536C295.396 36.536 294.239 35.3793 294.239 33.9525C294.239 32.5258 295.396 31.3691 296.823 31.3691C298.249 31.3691 299.406 32.5258 299.406 33.9525Z" fill="#231F1E"/>
</svg>
