<svg width="983" height="274" viewBox="0 0 983 274" fill="none" xmlns="http://www.w3.org/2000/svg">
<g clip-path="url(#clip0_56_318)">
<rect width="983" height="274" rx="37" fill="white"/>
<rect width="1119" height="274" rx="31" fill="#E5FFF3"/>
<rect x="266" y="24" width="690" height="221" rx="30" fill="white" stroke="url(#paint0_linear_56_318)" stroke-width="2"/>
<path d="M55.8304 104.629L71.0218 150.573H71.6203L86.7832 104.629H98.4118L77.8337 163H64.7799L44.2302 104.629H55.8304ZM105.644 163V119.221H115.962V163H105.644ZM110.831 113.008C109.197 113.008 107.791 112.467 106.613 111.384C105.435 110.281 104.846 108.961 104.846 107.422C104.846 105.864 105.435 104.543 106.613 103.46C107.791 102.358 109.197 101.807 110.831 101.807C112.485 101.807 113.891 102.358 115.05 103.46C116.228 104.543 116.817 105.864 116.817 107.422C116.817 108.961 116.228 110.281 115.05 111.384C113.891 112.467 112.485 113.008 110.831 113.008ZM161.172 130.793L151.767 131.819C151.501 130.869 151.035 129.976 150.37 129.14C149.724 128.304 148.85 127.629 147.748 127.116C146.646 126.603 145.297 126.347 143.701 126.347C141.554 126.347 139.749 126.812 138.286 127.743C136.842 128.675 136.129 129.881 136.148 131.363C136.129 132.636 136.595 133.672 137.545 134.47C138.514 135.268 140.11 135.923 142.333 136.436L149.8 138.033C153.943 138.926 157.021 140.341 159.035 142.279C161.068 144.217 162.094 146.754 162.113 149.889C162.094 152.644 161.286 155.077 159.69 157.186C158.113 159.276 155.919 160.91 153.106 162.088C150.294 163.266 147.064 163.855 143.416 163.855C138.058 163.855 133.744 162.734 130.476 160.492C127.208 158.231 125.26 155.086 124.633 151.058L134.694 150.089C135.15 152.065 136.119 153.556 137.602 154.564C139.084 155.571 141.012 156.074 143.387 156.074C145.839 156.074 147.805 155.571 149.287 154.564C150.788 153.556 151.539 152.312 151.539 150.83C151.539 149.576 151.054 148.54 150.085 147.723C149.135 146.906 147.653 146.279 145.639 145.842L138.172 144.274C133.972 143.4 130.866 141.928 128.852 139.857C126.837 137.767 125.84 135.125 125.859 131.933C125.84 129.235 126.571 126.898 128.054 124.922C129.555 122.927 131.635 121.388 134.295 120.305C136.975 119.202 140.062 118.651 143.558 118.651C148.689 118.651 152.726 119.744 155.672 121.929C158.636 124.114 160.469 127.069 161.172 130.793ZM170.621 163V119.221H180.938V163H170.621ZM175.808 113.008C174.174 113.008 172.768 112.467 171.59 111.384C170.412 110.281 169.823 108.961 169.823 107.422C169.823 105.864 170.412 104.543 171.59 103.46C172.768 102.358 174.174 101.807 175.808 101.807C177.461 101.807 178.867 102.358 180.026 103.46C181.204 104.543 181.793 105.864 181.793 107.422C181.793 108.961 181.204 110.281 180.026 111.384C178.867 112.467 177.461 113.008 175.808 113.008ZM213.409 119.221V127.202H188.242V119.221H213.409ZM194.455 108.733H204.773V149.832C204.773 151.219 204.982 152.283 205.4 153.024C205.837 153.746 206.407 154.24 207.11 154.507C207.813 154.773 208.592 154.906 209.447 154.906C210.093 154.906 210.682 154.858 211.214 154.763C211.765 154.668 212.183 154.583 212.468 154.507L214.207 162.572C213.656 162.762 212.867 162.971 211.841 163.2C210.834 163.428 209.599 163.561 208.136 163.599C205.552 163.675 203.224 163.285 201.153 162.43C199.082 161.556 197.438 160.207 196.222 158.383C195.025 156.559 194.436 154.279 194.455 151.542V108.733Z" fill="#0E1118"/>
<path d="M454.5 154.2C455.1 160.2 460.6 170.4 476.3 170.4C490 170.4 496.6 161.7 496.6 153.2C496.6 145.5 491.4 139.3 481.1 137.1L473.7 135.5C470.8 135 468.9 133.4 468.9 130.8C468.9 127.8 471.9 125.6 475.6 125.6C481.6 125.6 483.8 129.5 484.2 132.6L496 129.9C495.4 124.3 490.4 114.8 475.5 114.8C464.2 114.8 455.9 122.6 455.9 131.9C455.9 139.2 460.5 145.3 470.6 147.5L477.5 149.1C481.5 150 483.1 151.9 483.1 154.2C483.1 157 480.9 159.4 476.2 159.4C470 159.4 467 155.6 466.6 151.4L454.5 154.2ZM541.8 168.8H555.3C555.1 167 554.8 163.4 554.8 159.3V116.4H540.7V146.8C540.7 152.9 537.1 157.1 530.8 157.1C524.2 157.1 521.2 152.4 521.2 146.6V116.4H507V149.5C507 160.9 514.2 170.1 526.9 170.1C532.4 170.1 538.5 168 541.4 163.1C541.3 165.3 541.5 167.7 541.8 168.8ZM584 189V163.7C586.6 167.2 591.9 170.1 599.1 170.1C613.9 170.1 623.8 158.4 623.8 142.5C623.8 127 615 115.3 599.7 115.3C591.8 115.3 586 118.8 583.6 122.9V116.5H569.9V189H584ZM609.8 142.6C609.8 152 604.1 157.4 596.8 157.4C589.6 157.4 583.7 151.9 583.7 142.6C583.7 133.3 589.5 127.9 596.8 127.9C604 127.9 609.8 133.3 609.8 142.6ZM631.7 154.5C631.7 162.7 638.5 170.3 649.7 170.3C657.5 170.3 662.5 166.7 665.1 162.5C665.1 164.5 665.3 167.4 665.6 168.8H678.6C678.3 167 678 163.3 678 160.5V134.7C678 124.2 671.8 114.8 655.3 114.8C641.3 114.8 633.7 123.8 632.9 132L645.4 134.7C645.8 130.1 649.2 126.2 655.4 126.2C661.4 126.2 664.2 129.3 664.2 133C664.2 134.8 663.2 136.3 660.3 136.7L647.4 138.6C638.6 139.9 631.7 145.1 631.7 154.5ZM652.7 159.7C648.1 159.7 645.9 156.7 645.9 153.6C645.9 149.6 648.8 147.5 652.4 147L664.2 145.2V147.5C664.1 156.9 658.6 159.7 652.7 159.7ZM705.9 168.8V162.4C708.7 166.9 714.2 170.1 721.4 170.1C736.3 170.1 746.1 158.3 746.1 142.4C746.1 126.9 737.3 115 722 115C714.2 115 708.5 118.4 706.2 122.1V91.7002H692.3V168.7H705.9V168.8ZM732 142.5C732 152.1 726.3 157.4 719 157.4C711.9 157.4 705.9 152 705.9 142.5C705.9 132.9 711.9 127.7 719 127.7C726.2 127.7 732 132.9 732 142.5ZM754.1 154.5C754.1 162.7 760.9 170.3 772.1 170.3C779.9 170.3 784.9 166.7 787.5 162.5C787.5 164.5 787.7 167.4 788 168.8H801C800.7 167 800.4 163.3 800.4 160.5V134.7C800.4 124.2 794.2 114.8 777.7 114.8C763.7 114.8 756.1 123.8 755.3 132L767.8 134.7C768.2 130.1 771.6 126.2 777.8 126.2C783.8 126.2 786.6 129.3 786.6 133C786.6 134.8 785.6 136.3 782.7 136.7L769.8 138.6C761 139.9 754.1 145.1 754.1 154.5ZM775 159.7C770.4 159.7 768.2 156.7 768.2 153.6C768.2 149.6 771.1 147.5 774.7 147L786.5 145.2V147.5C786.5 156.9 781 159.7 775 159.7ZM810.1 154.2C810.7 160.2 816.2 170.4 831.9 170.4C845.6 170.4 852.2 161.7 852.2 153.2C852.2 145.5 847 139.3 836.7 137.1L829.3 135.5C826.4 135 824.5 133.4 824.5 130.8C824.5 127.8 827.5 125.6 831.2 125.6C837.2 125.6 839.4 129.5 839.8 132.6L851.6 129.9C851 124.3 846 114.8 831.1 114.8C819.8 114.8 811.5 122.6 811.5 131.9C811.5 139.2 816.1 145.3 826.2 147.5L833.1 149.1C837.1 150 838.7 151.9 838.7 154.2C838.7 157 836.5 159.4 831.8 159.4C825.6 159.4 822.6 155.6 822.2 151.4L810.1 154.2ZM873.7 136.6C874 131.8 878.1 126.3 885.4 126.3C893.5 126.3 896.9 131.4 897.1 136.6H873.7ZM898.5 150.3C896.8 155 893.2 158.3 886.6 158.3C879.6 158.3 873.7 153.3 873.4 146.4H910.8C910.8 146.2 911 144.1 911 142C911 125.2 901.3 114.9 885.2 114.9C871.8 114.9 859.5 125.8 859.5 142.5C859.5 160.2 872.1 170.5 886.5 170.5C899.4 170.5 907.7 162.9 910.3 153.9L898.5 150.3Z" fill="#1F1F1F"/>
<path d="M316.6 151.3C313.5 151.3 311 148.8 311 145.7C311 144.5 311.4 143.3 312.1 142.4L314.2 139.4L362.7 73.9C363.1 73.4 363.7 73 364.4 73C365.6 73 366.5 73.9 366.5 75.1V75.3V151.2H316.6V151.3Z" fill="#3ECF8E"/>
<path d="M416.6 123C419.7 123 422.2 125.5 422.2 128.6C422.2 129.8 421.8 131 421.1 131.9L419 134.9L370.5 200.4C370.1 200.9 369.5 201.3 368.8 201.3C367.6 201.3 366.7 200.4 366.7 199.2V199V123H416.6Z" fill="url(#paint1_linear_56_318)"/>
<path d="M416.6 123C419.7 123 422.2 125.5 422.2 128.6C422.2 129.8 421.8 131 421.1 131.9L419 134.9L370.5 200.4C370.1 200.9 369.5 201.3 368.8 201.3C367.6 201.3 366.7 200.4 366.7 199.2V199V123H416.6Z" fill="url(#paint2_linear_56_318)" fill-opacity="0.2"/>
</g>
<defs>
<linearGradient id="paint0_linear_56_318" x1="957" y1="23" x2="252.62" y2="169.46" gradientUnits="userSpaceOnUse">
<stop stop-color="#3ECF8E"/>
<stop offset="1" stop-color="#218559"/>
</linearGradient>
<linearGradient id="paint1_linear_56_318" x1="362.288" y1="150.142" x2="403.705" y2="166.304" gradientUnits="userSpaceOnUse">
<stop stop-color="#249361"/>
<stop offset="1" stop-color="#3ECF8E"/>
</linearGradient>
<linearGradient id="paint2_linear_56_318" x1="361.277" y1="105.445" x2="381.952" y2="141.656" gradientUnits="userSpaceOnUse">
<stop/>
<stop offset="1" stop-opacity="0"/>
</linearGradient>
<clipPath id="clip0_56_318">
<rect width="983" height="274" rx="37" fill="white"/>
</clipPath>
</defs>
</svg>
